{"title":"Aapadbandavudu (1992) DvdRip Telugu Movie - teluguppls","uid":6429074,"size":736435037,"categoryP":"video","categoryS":"movies","magnet":"?xt=urn:btih:b89849ad8033803b02e6501081e6fac0c64c6cec&amp;dn=Aapadbandavudu+%281992%29+DvdRip+Telugu+Movie+-+teluguppls&amp;tr=udp%3A%2F%2Ftracker.openbittorrent.com%3A80&amp;tr=udp%3A%2F%2Fopen.demonii.com%3A1337&amp;tr=udp%3A%2F%2Ftracker.coppersurfer.tk%3A6969&amp;tr=udp%3A%2F%2Fexodus.desync.com%3A6969","seeders":0,"leechers":1,"uploader":"n1212","files":2,"time":1306580058,"description":"Aapadbandavudu (1992) DvdRip Telugu Movie -\n\n\n\nSCREENSHOTS\n\n\n\n\n\nGeneral\n\nFormat                           : MPEG-4\nFile size                        : 702 MiB\nDuration                         : 2h 43mn\n\n\nVideo\n\nFormat                           : AVC\nFormat settings, ReFrames        : 3 frames\nCodec ID                         : avc1\nDuration                         : 2h 43mn\nBit rate mode                    : Variable\nBit rate                         : 549 Kbps\nMaximum bit rate                 : 2 097 Kbps\nWidth                            : 608 pixels\nHeight                           : 304 pixels\nDisplay aspect ratio             : 2.000\nFrame rate mode                  : Constant\nFrame rate                       : 23.976 fps\nColor space                      : YUV\nChroma subsampling               : 4:2:0\nBit depth                        : 8 bits\nScan type                        : Progressive\nBits/(Pixel*Frame)               : 0.124\nStream size                      : 641 MiB (91%)\n\n\nAudio\n\nFormat                           : AAC\nDuration                         : 2h 43mn\nBit rate mode                    : Variable\nBit rate                         : 48.0 Kbps\nMaximum bit rate                 : 75.6 Kbps\nChannel(s)                       : 2 channels\nChannel positions                : Front: L R\nSampling rate                    : 48.0 KHz\nCompression mode                 : Lossy\nStream size                      : 56.4 MiB (8%)\n\n\n\nDON'T FORGET TO SEEEDDDDDDDDDDDDDDDDDDDDDDD\n\n\n\nPLZ POST A COMMENT...................","torrent":{"xt":"urn:btih:b89849ad8033803b02e6501081e6fac0c64c6cec","amp;dn":"Aapadbandavudu+%281992%29+DvdRip+Telugu+Movie+-+teluguppls","amp;tr":["udp%3A%2F%2Ftracker.openbittorrent.com%3A80","udp%3A%2F%2Fopen.demonii.com%3A1337","udp%3A%2F%2Ftracker.coppersurfer.tk%3A6969","udp%3A%2F%2Fexodus.desync.com%3A6969"],"infoHash":"b89849ad8033803b02e6501081e6fac0c64c6cec","infoHashBuffer":{"type":"Buffer","data":[184,152,73,173,128,51,128,59,2,230,80,16,129,230,250,192,198,76,108,236]},"announce":[],"urlList":[]}}